<?xml version="1.0" standalone="no"?>
<!DOCTYPE svg PUBLIC "-//W3C//DTD SVG 20010904//EN"
 "http://www.w3.org/TR/2001/REC-SVG-20010904/DTD/svg10.dtd">
<svg version="1.0" xmlns="http://www.w3.org/2000/svg"
 width="512.000000pt" height="512.000000pt" viewBox="0 0 512.000000 512.000000"
 preserveAspectRatio="xMidYMid meet">
<metadata>
Created by potrace 1.11, written by Peter Selinger 2001-2013
</metadata>
<g transform="translate(0.000000,512.000000) scale(0.100000,-0.100000)"
fill="#000000" stroke="none">
<path d="M0 2560 l0 -2560 2560 0 2560 0 0 2560 0 2560 -2560 0 -2560 0 0
-2560z m979 1718 c9 -24 167 -354 202 -421 16 -32 19 -59 19 -185 l0 -147 140
3 c118 3 141 1 146 -12 5 -13 66 -56 80 -56 2 0 4 11 4 25 0 20 5 25 26 25 22
0 25 2 14 15 -7 8 -18 15 -24 15 -7 0 -22 13 -34 30 -22 29 -22 35 -22 374 l0
344 43 4 c23 3 47 2 53 -1 10 -5 109 -125 351 -424 l55 -69 -8 -136 -9 -137
-60 -5 c-60 -5 -60 -5 -29 -18 24 -10 48 -11 110 -2 43 6 119 13 167 17 51 3
90 11 93 17 2 6 0 71 -4 144 -5 95 -4 139 5 155 24 47 183 377 183 382 0 3 11
24 26 46 20 33 30 40 51 37 30 -3 32 -8 179 -312 l86 -179 -3 -141 -4 -141
165 -4 c271 -7 432 -6 690 1 l245 6 -3 124 c-2 68 -5 130 -7 138 -2 8 51 125
118 260 120 240 123 245 155 248 29 3 34 0 51 -40 10 -24 61 -128 112 -233
l94 -190 5 -154 5 -153 95 -2 95 -1 0 -170 0 -170 -58 4 c-56 3 -142 -13 -152
-29 -3 -5 40 -8 96 -9 55 0 104 -3 109 -6 6 -4 10 -19 10 -36 l0 -29 -105 0
-105 0 -1 -87 c0 -49 -4 -327 -8 -620 -8 -524 -9 -532 -31 -567 -21 -36 -43
-46 -55 -26 -12 19 -25 10 -25 -17 0 -16 -7 -37 -15 -47 -8 -11 -15 -23 -15
-28 0 -13 28 -9 32 4 4 12 14 9 63 -20 27 -17 30 -24 33 -80 2 -46 0 -62 -10
-62 -107 -4 -375 3 -381 9 -5 5 -12 98 -17 207 -5 110 -14 303 -20 429 -5 127
-15 338 -20 470 -6 132 -13 284 -17 338 l-6 97 -174 0 -173 0 0 -776 0 -775
-37 3 -38 3 3 53 c2 28 1 52 -2 52 -3 0 -13 -25 -22 -55 l-18 -55 -138 0
c-102 0 -140 3 -142 13 -2 6 -9 131 -16 277 -6 146 -17 396 -25 555 -8 160
-17 380 -20 489 -3 110 -8 203 -11 208 -3 4 -74 8 -159 8 l-153 0 -6 -152 c-9
-234 -16 -718 -16 -1076 l0 -323 -27 3 c-25 3 -29 8 -34 48 -8 55 -42 143 -57
148 -20 6 -24 -47 -9 -115 8 -38 13 -71 10 -75 -2 -5 -65 -8 -139 -8 -99 0
-136 3 -139 13 -4 12 -8 103 -40 757 -8 173 -20 410 -25 525 -6 116 -10 220
-10 233 0 22 -1 22 -159 22 l-158 0 -7 -31 c-3 -17 -6 -82 -6 -143 0 -61 -4
-181 -10 -266 -5 -85 -11 -222 -14 -305 -6 -143 -16 -372 -21 -424 -2 -27 -19
-39 -30 -22 -3 6 -13 11 -21 11 -11 0 -13 -6 -9 -20 5 -16 2 -20 -20 -20 -25
0 -25 -1 -10 -24 16 -24 6 -44 -15 -31 -16 10 -12 -5 10 -32 27 -35 25 -51
-10 -71 -16 -9 -30 -22 -30 -28 0 -6 27 -17 60 -24 l60 -13 0 -54 0 -53 -197
2 -198 3 -3 762 c-2 738 -2 762 17 768 14 4 19 16 19 50 2 61 -30 58 -72 -7
l-18 -28 -143 0 -142 0 -6 -277 c-4 -153 -10 -501 -13 -773 -4 -299 -11 -497
-17 -501 -14 -10 -47 1 -47 16 0 6 -9 20 -21 31 -16 15 -24 16 -39 6 -11 -7
-29 -12 -40 -12 -10 0 -24 -9 -30 -20 -10 -18 -21 -20 -110 -20 -55 0 -100 1
-100 3 -1 3 -23 473 -55 1182 -9 176 -15 330 -15 343 0 22 -2 22 -115 22
l-115 0 0 30 c0 29 2 30 45 30 66 0 59 31 -8 32 -17 1 -34 4 -37 8 -3 5 -4 85
-2 180 l3 172 82 -6 c45 -3 112 -9 150 -12 58 -5 67 -3 67 11 0 9 -13 24 -30
33 -43 25 -67 76 -75 165 l-7 77 72 148 c183 375 170 352 207 352 25 0 36 -5
42 -22z m2609 13 c1 -1 2 -167 2 -369 l0 -368 -232 4 c-128 2 -238 5 -244 7
-6 2 -14 49 -18 115 l-7 113 42 55 c23 30 49 62 58 72 9 9 61 72 116 140 213
263 193 242 239 236 23 -3 42 -5 44 -5z m-298 -3281 l0 -89 41 14 c23 8 59 15
81 15 89 0 108 -38 108 -215 l0 -125 -58 0 -59 0 5 79 c6 106 -4 168 -27 176
-11 3 -35 -2 -55 -12 l-36 -17 0 -113 0 -113 -57 0 -58 0 0 245 0 245 58 0 57
0 0 -90z m-2390 46 c0 -7 3 -27 6 -43 l6 -30 -71 -5 c-120 -9 -136 -52 -38
-104 89 -47 112 -75 112 -133 0 -39 -5 -55 -25 -76 -44 -47 -77 -58 -192 -63
-92 -4 -108 -2 -108 10 0 9 -3 29 -6 45 l-6 30 82 6 c66 4 87 10 104 26 28 28
15 47 -57 86 -102 55 -131 102 -103 168 29 68 90 96 214 97 63 0 82 -3 82 -14z
m2180 0 c0 -7 3 -27 6 -43 l6 -30 -71 -5 c-120 -9 -136 -52 -38 -104 89 -47
112 -75 112 -133 0 -39 -5 -55 -25 -76 -44 -47 -77 -58 -192 -63 -92 -4 -108
-2 -108 10 0 9 -3 29 -6 45 l-6 30 82 6 c66 4 87 10 104 26 28 28 15 47 -57
86 -102 55 -131 102 -103 168 29 68 90 96 214 97 63 0 82 -3 82 -14z m-1960
-61 l0 -45 60 0 60 0 0 -35 0 -35 -60 0 -60 0 0 -77 c0 -43 4 -83 8 -90 9 -15
56 -33 86 -33 19 0 21 -4 18 -35 l-4 -35 -60 0 c-72 0 -123 22 -143 61 -10 18
-15 59 -15 119 l0 90 -30 0 c-28 0 -30 3 -30 35 0 32 2 35 30 35 29 0 30 2 30
45 l0 45 55 0 55 0 0 -45z m1340 0 l0 -45 60 0 60 0 0 -35 0 -35 -60 0 -60 0
0 -77 c0 -43 4 -83 8 -90 9 -15 56 -33 86 -33 19 0 21 -4 18 -35 l-4 -35 -60
0 c-72 0 -123 22 -143 61 -10 18 -15 59 -15 119 l0 90 -30 0 c-28 0 -30 3 -30
35 0 32 2 35 30 35 29 0 30 2 30 45 l0 45 55 0 55 0 0 -45z m2030 0 l0 -45 60
0 60 0 0 -35 0 -35 -60 0 -60 0 0 -77 c0 -43 4 -83 8 -90 9 -15 56 -33 86 -33
19 0 21 -4 18 -35 l-4 -35 -60 0 c-72 0 -123 22 -143 61 -10 18 -15 59 -15
119 l0 90 -30 0 c-28 0 -30 3 -30 35 0 32 2 35 30 35 29 0 30 2 30 45 l0 45
55 0 55 0 0 -45z m-2957 -80 c9 -25 15 -45 14 -46 -1 0 -33 -10 -72 -22 l-70
-23 -3 -107 -3 -107 -57 0 -57 0 0 170 0 170 53 0 c45 0 52 -3 52 -20 0 -25 5
-25 60 5 25 13 50 24 57 25 6 0 18 -20 26 -45z m295 15 c36 -22 71 -88 72
-132 l0 -28 -116 0 c-103 0 -115 -2 -112 -17 5 -29 65 -55 139 -61 38 -2 69
-8 69 -12 0 -4 -3 -22 -6 -39 -6 -31 -7 -31 -73 -31 -151 0 -241 63 -241 169
0 72 35 130 95 157 47 21 134 17 173 -6z m370 0 c36 -22 71 -88 72 -132 l0
-28 -116 0 c-103 0 -115 -2 -112 -17 5 -29 65 -55 139 -61 38 -2 69 -8 69 -12
0 -4 -3 -22 -6 -39 -6 -31 -7 -31 -73 -31 -151 0 -241 63 -241 169 0 72 35
130 95 157 47 21 134 17 173 -6z m1650 0 c36 -22 71 -88 72 -132 l0 -28 -116
0 c-103 0 -115 -2 -112 -17 5 -29 65 -55 139 -61 38 -2 69 -8 69 -12 0 -4 -3
-22 -6 -39 -6 -31 -7 -31 -73 -31 -151 0 -241 63 -241 169 0 72 35 130 95 157
47 21 134 17 173 -6z m380 0 c36 -22 71 -88 72 -132 l0 -28 -116 0 c-103 0
-115 -2 -112 -17 5 -29 65 -55 139 -61 38 -2 69 -8 69 -12 0 -4 -3 -22 -6 -39
-6 -31 -7 -31 -73 -31 -151 0 -241 63 -241 169 0 72 35 130 95 157 47 21 134
17 173 -6z"/>
<path d="M3280 2498 c1 -30 48 -169 49 -144 1 30 -33 166 -41 166 -5 0 -8 -10
-8 -22z"/>
<path d="M3481 1750 c0 -19 7 -51 15 -70 l14 -35 -6 54 c-6 67 -24 104 -23 51z"/>
<path d="M1707 883 c-9 -2 -24 -18 -32 -34 l-16 -29 70 0 c65 0 69 1 64 20 -6
22 -40 51 -58 49 -5 -1 -18 -3 -28 -6z"/>
<path d="M2077 883 c-9 -2 -24 -18 -32 -34 l-16 -29 70 0 c65 0 69 1 64 20 -6
22 -40 51 -58 49 -5 -1 -18 -3 -28 -6z"/>
<path d="M3727 883 c-9 -2 -24 -18 -32 -34 l-16 -29 70 0 c65 0 69 1 64 20 -6
22 -40 51 -58 49 -5 -1 -18 -3 -28 -6z"/>
<path d="M4107 883 c-9 -2 -24 -18 -32 -34 l-16 -29 70 0 c65 0 69 1 64 20 -6
22 -40 51 -58 49 -5 -1 -18 -3 -28 -6z"/>
</g>
</svg>
